<svg xmlns="http://www.w3.org/2000/svg" xmlns:xlink="http://www.w3.org/1999/xlink" xmlns:a="http://ns.adobe.com/AdobeSVGViewerExtensions/3.0/" version="1.1" x="0px" y="0px" viewBox="-1.458 -2.938 100 100" enable-background="new -1.458 -2.938 100 100" xml:space="preserve"><path d="M1.854,0L0,2.604l36.09,93.88l25.413-26.908l10.815,4.081l0.938-17.458l24.956-20.662L1.854,0z M68.792,65.75l-2.412-5.597  l-8.519-7.682l0.244-5.96l11.211,8.494L68.792,65.75z M15.202,14.003L56.164,45.04l-0.233,5.69L15.202,14.003z M64.082,60.773  l-4.147,4.639L40.501,85.987L53.18,50.943L64.082,60.773z M65.314,62.349l2.221,5.228l-5.229-1.974L65.314,62.349z M9.234,6.972  l79.831,29.454l-31.696,7.019L9.234,6.972z M6.832,9.148l44.745,40.35L37.389,88.711L6.832,9.148z M70.432,53.344L59.46,45.03  l28.689-6.353L70.432,53.344z"></path></svg>